<svg preserveAspectRatio="none" width="100%" height="100%" overflow="visible" style="display: block;" viewBox="0 0 28 28" fill="none" xmlns="http://www.w3.org/2000/svg">
<g id="bell">
<path id="Vector" d="M17.8742 12.3539C17.8742 7.01641 15.0031 5.20078 12.318 4.79609C12.318 4.76875 12.3234 4.74141 12.3234 4.70859C12.3234 4.03594 11.7273 3.5 11 3.5C10.2727 3.5 9.69844 4.03594 9.69844 4.70859C9.69844 4.74141 9.69844 4.76875 9.70391 4.79609C7.01328 5.20625 4.12578 7.02734 4.12578 12.3648C4.12578 18.5883 2.57812 19.2555 0.5 21.0055H21.5C19.4328 19.25 17.8742 18.5773 17.8742 12.3539ZM11.0109 24.5C12.4766 24.5 13.6797 23.4117 13.8383 22.1484H8.18359C8.33672 23.4117 9.54531 24.5 11.0109 24.5Z" fill="var(--fill-0, #0065FB)"/>
</g>
</svg>
