<svg preserveAspectRatio="none" width="100%" height="100%" overflow="visible" style="display: block;" viewBox="0 0 28 28" fill="none" xmlns="http://www.w3.org/2000/svg">
<path id="Vector" d="M3.77778 0H24.2222C25.2041 0 26 0.795938 26 1.77778V26.2222C26 27.2041 25.2041 28 24.2222 28H3.77778C2.79594 28 2 27.2041 2 26.2222V1.77778C2 0.795938 2.79594 0 3.77778 0ZM3.77778 2.66667V25.3333H24.2222V2.66667H3.77778ZM7.55556 5.33333H20.4444V7.11111H7.55556V5.33333ZM7.55556 8.88889H20.4444V10.6667H7.55556V8.88889ZM7.55556 12.4444H20.4444V14.2222H7.55556V12.4444ZM7.55556 16H20.4444V17.7778H7.55556V16ZM7.55556 19.5556H20.4444V21.3333H7.55556V19.5556ZM7.55556 23.1111H20.4444V24.8889H7.55556V23.1111Z" fill="#0065FB"/>
</svg>
