<svg preserveAspectRatio="none" width="100%" height="100%" overflow="visible" style="display: block;" viewBox="0 0 26 18" fill="none" xmlns="http://www.w3.org/2000/svg">
<g id="eye-slash">
<path id="Vector" d="M15.2581 6.76395L9.94508 10.3782C9.26258 9.91395 8.84258 9.27824 8.84258 8.57109C8.84258 7.15681 10.5226 6.01395 12.6016 6.01395C13.6411 6.01395 14.5756 6.29966 15.2581 6.76395Z" stroke="#221F1F" stroke-opacity="0.4" stroke-width="1.5" stroke-linecap="round" stroke-linejoin="round"/>
<path id="Vector_2" d="M18.7122 4.121C16.8747 3.17814 14.7747 2.66385 12.6012 2.66385C8.8947 2.66385 5.4402 4.14957 3.0357 6.721C2.0907 7.72814 2.0907 9.421 3.0357 10.4281C3.8652 11.3139 4.8312 12.0781 5.8812 12.6924" stroke="#221F1F" stroke-opacity="0.4" stroke-width="1.5" stroke-linecap="round" stroke-linejoin="round"/>
<path id="Vector_3" d="M8.84258 13.9496C10.0396 14.2924 11.3101 14.4781 12.6016 14.4781C16.3081 14.4781 19.7626 12.9924 22.1671 10.421C23.1121 9.41385 23.1121 7.721 22.1671 6.71385C21.8206 6.34242 21.4426 5.99242 21.0541 5.66385" stroke="#221F1F" stroke-opacity="0.4" stroke-width="1.5" stroke-linecap="round" stroke-linejoin="round"/>
<path id="Vector_4" d="M16.286 9.07108C16.013 10.0782 14.8055 10.8997 13.325 11.0854" stroke="#221F1F" stroke-opacity="0.4" stroke-width="1.5" stroke-linecap="round" stroke-linejoin="round"/>
<path id="Vector_5" d="M9.94389 10.3782L2.10039 15.7139" stroke="#221F1F" stroke-opacity="0.4" stroke-width="1.5" stroke-linecap="round" stroke-linejoin="round"/>
<path id="Vector_6" d="M23.1001 1.4285L15.2566 6.76422" stroke="#221F1F" stroke-opacity="0.4" stroke-width="1.5" stroke-linecap="round" stroke-linejoin="round"/>
<g id="Vector_7" opacity="0">
</g>
</g>
</svg>
