<svg preserveAspectRatio="none" width="100%" height="100%" overflow="visible" style="display: block;" viewBox="0 0 19 26" fill="none" xmlns="http://www.w3.org/2000/svg">
<g id="Group">
<mask id="mask0_54669_4472" style="mask-type:alpha" maskUnits="userSpaceOnUse" x="0" y="-1" width="19" height="27">
<g id="mask-2">
<path id="Vector" d="M19 6.7649C19 7.55247 18.4346 8.1381 17.6472 8.1381H7.1881L4.07864 7.99674L6.34006 9.895L7.91498 11.2278C8.17747 11.4499 8.31881 11.8134 8.31881 12.2173C8.31881 12.9645 7.73326 13.5501 6.98618 13.5501C6.60255 13.5501 6.27949 13.4088 6.03719 13.1665L0.524973 7.95636C0.16153 7.61306 0 7.16879 0 6.7649C0 6.36102 0.141339 5.97734 0.524973 5.61383L6.03719 0.363354C6.27949 0.121035 6.60255 -0.000133149 6.98618 -0.000133149C7.73326 -0.000133149 8.31881 0.565307 8.31881 1.31249C8.31881 1.71636 8.17747 2.05967 7.91498 2.2818L6.34006 3.655L4.09883 5.53306L7.1881 5.3917H17.6472C18.4346 5.3917 19 5.95714 19 6.7649ZM19 19.1237C19 19.5478 18.8385 19.9719 18.475 20.3152L12.9628 25.5455C12.7205 25.7878 12.3975 25.909 12.0138 25.909C11.2667 25.909 10.6812 25.3233 10.6812 24.5761C10.6812 24.1925 10.8225 23.8088 11.085 23.6068L12.6599 22.274L14.9416 20.3758L11.8119 20.4969H1.35282C0.565356 20.4969 0 19.9315 0 19.1237C0 18.3362 0.565356 17.7707 1.35282 17.7707H11.8119L14.9012 17.8919L12.6599 16.034L11.085 14.6608C10.8225 14.4387 10.6812 14.0954 10.6812 13.6915C10.6812 12.9443 11.2667 12.3789 12.0138 12.3789C12.3975 12.3789 12.7205 12.4798 12.9628 12.7222L18.475 17.9929C18.8587 18.3563 19 18.74 19 19.1237Z" fill="var(--fill-0, white)"/>
</g>
</mask>
<g mask="url(#mask0_54669_4472)">
<path id="Fill-1" fill-rule="evenodd" clip-rule="evenodd" d="M-4 -5.04492H21V30.9551H-4V-5.04492Z" fill="var(--fill-0, #0065FB)"/>
</g>
</g>
</svg>
