<svg preserveAspectRatio="none" width="100%" height="100%" overflow="visible" style="display: block;" viewBox="0 0 24 22" fill="none" xmlns="http://www.w3.org/2000/svg">
<g id="logout">
<path id="Path" d="M11.139 20.706H4.63241C2.86415 20.706 1.42943 19.4381 1.42943 17.8858V4.07874C1.42943 2.52182 2.86945 1.25858 4.63241 1.25858H11.2448C11.6419 1.25858 11.9596 0.978897 11.9596 0.629291C11.9596 0.279685 11.6419 0 11.2448 0H4.63241C2.07532 0 0 1.83193 0 4.07874V17.8858C0 20.1373 2.08061 21.9646 4.63241 21.9646H11.139C11.536 21.9646 11.8537 21.6849 11.8537 21.3353C11.8537 20.9857 11.5307 20.706 11.139 20.706Z" fill="var(--fill-0, #0065FB)"/>
<path id="Path_2" d="M22.9132 10.5395L18.3708 6.53996C18.0902 6.29291 17.6402 6.29291 17.3596 6.53996C17.079 6.78702 17.079 7.18324 17.3596 7.43029L20.6844 10.3577H6.18361C5.78654 10.3577 5.46889 10.6373 5.46889 10.9869C5.46889 11.3366 5.78654 11.6162 6.18361 11.6162H20.6844L17.3596 14.5436C17.079 14.7907 17.079 15.1869 17.3596 15.4339C17.4973 15.5551 17.6826 15.6204 17.8626 15.6204C18.0426 15.6204 18.2279 15.5598 18.3655 15.4339L22.9079 11.4344C23.1938 11.1827 23.1938 10.7818 22.9132 10.5395Z" fill="var(--fill-0, #0065FB)"/>
</g>
</svg>
