<svg preserveAspectRatio="none" width="100%" height="100%" overflow="visible" style="display: block;" viewBox="0 0 26 28" fill="none" xmlns="http://www.w3.org/2000/svg">
<g id="My Cards 1">
<path id="Vector" d="M0 9.83352H20V8.94886C20 6.98929 19.0437 6 17.1402 6H2.85975C0.956282 6 0 6.98929 0 8.94886V9.83352ZM0 19.0606C0 21.0202 0.956282 22 2.85975 22H17.1402C19.0437 22 20 21.0202 20 19.0606V11.9929H0V19.0606ZM3.0419 16.7396V14.9797C3.0419 14.447 3.39708 14.0666 3.93442 14.0666H6.16575C6.70309 14.0666 7.05828 14.447 7.05828 14.9797V16.7396C7.05828 17.2818 6.70309 17.6528 6.16575 17.6528H3.93442C3.39708 17.6528 3.0419 17.2818 3.0419 16.7396Z" fill="var(--fill-0, #0065FB)"/>
</g>
</svg>
