<svg preserveAspectRatio="none" width="100%" height="100%" overflow="visible" style="display: block;" viewBox="0 0 16 16" fill="none" xmlns="http://www.w3.org/2000/svg">
<g id="phone">
<path id="Vector" d="M13.04 9.87293C12.3131 9.87448 11.5906 9.7597 10.9 9.53293C10.7375 9.48026 10.564 9.47101 10.3967 9.5061C10.2295 9.54118 10.0743 9.61938 9.94667 9.73293L8.61333 10.7529C7.17086 10.0317 6.00122 8.86208 5.28 7.4196L6.26667 6.08627C6.3924 5.96044 6.48125 5.80256 6.52356 5.62979C6.56587 5.45702 6.56003 5.27595 6.50667 5.10626C6.28001 4.41561 6.16523 3.69316 6.16667 2.96626C6.16674 2.83647 6.14068 2.70798 6.09003 2.58847C6.03938 2.46896 5.96518 2.36088 5.87185 2.27067C5.77853 2.18046 5.66799 2.10996 5.54684 2.06339C5.42568 2.01682 5.29639 1.99512 5.16667 1.9996H2.96C2.70593 2.00134 2.46277 2.10305 2.28311 2.28271C2.10345 2.46236 2.00175 2.70553 2 2.9596C2.00177 5.88705 3.16547 8.69409 5.23549 10.7641C7.30551 12.8341 10.1126 13.9978 13.04 13.9996C13.2941 13.9979 13.5372 13.8961 13.7169 13.7165C13.8966 13.5368 13.9983 13.2937 14 13.0396V10.8396C14 10.5844 13.8991 10.3395 13.7192 10.1584C13.5394 9.97731 13.2952 9.87469 13.04 9.87293Z" fill="var(--fill-0, white)"/>
</g>
</svg>
