<svg preserveAspectRatio="none" width="100%" height="100%" overflow="visible" style="display: block;" viewBox="0 0 20 20" fill="none" xmlns="http://www.w3.org/2000/svg">
<g id="send">
<path id="Subtract" fill-rule="evenodd" clip-rule="evenodd" d="M0.000797735 8.74064C-0.0150327 8.36005 0.20595 8.00927 0.556067 7.85922L18.7211 0.0742087C19.0659 -0.073573 19.466 0.0034709 19.7313 0.268748C19.9965 0.534026 20.0736 0.934084 19.9258 1.27891L12.1408 19.4439C11.9907 19.794 11.6399 20.015 11.2594 19.9992C10.8788 19.9834 10.5476 19.734 10.4271 19.3727L8.31166 13.0263L14.4108 6.92714C14.7691 6.56885 14.7691 5.98794 14.4108 5.62964C14.0525 5.27134 13.4716 5.27134 13.1133 5.62964L7.03439 11.7086L0.627347 9.5729C0.265978 9.45244 0.0166281 9.12123 0.000797735 8.74064Z" fill="var(--fill-0, #0065FB)"/>
</g>
</svg>
