<svg preserveAspectRatio="none" width="100%" height="100%" overflow="visible" style="display: block;" viewBox="0 0 15 15" fill="none" xmlns="http://www.w3.org/2000/svg">
<g id="setting 1">
<path id="Vector 37 (Stroke)" fill-rule="evenodd" clip-rule="evenodd" d="M2.77083 3.375H0V1.875H2.77083V3.375ZM14.25 3.375H6.72917V1.875H14.25V3.375Z" fill="var(--fill-0, #0065FB)"/>
<path id="Union" fill-rule="evenodd" clip-rule="evenodd" d="M4.74935 0C3.21906 0 1.97852 1.17525 1.97852 2.625C1.97852 4.07475 3.21906 5.25 4.74935 5.25C6.27964 5.25 7.52018 4.07475 7.52018 2.625C7.52018 1.17525 6.27964 0 4.74935 0Z" fill="var(--fill-0, #0065FB)"/>
<path id="Vector 37 (Stroke)_2" fill-rule="evenodd" clip-rule="evenodd" d="M12.6667 7.875H14.25V6.375H12.6667V7.875ZM-3.57628e-07 7.875H8.70833V6.375H-3.57628e-07V7.875Z" fill="var(--fill-0, #0065FB)"/>
<path id="Union_2" fill-rule="evenodd" clip-rule="evenodd" d="M10.6868 4.5C12.2171 4.5 13.4577 5.67525 13.4577 7.125C13.4577 8.57475 12.2171 9.75 10.6868 9.75C9.15656 9.75 7.91602 8.57475 7.91602 7.125C7.91602 5.67525 9.15656 4.5 10.6868 4.5Z" fill="var(--fill-0, #0065FB)"/>
<path id="Vector 37 (Stroke)_3" fill-rule="evenodd" clip-rule="evenodd" d="M3.95833 12.375H0V10.875H3.95833V12.375ZM14.25 12.375H7.91667V10.875H14.25V12.375Z" fill="var(--fill-0, #0065FB)"/>
<path id="Union_3" fill-rule="evenodd" clip-rule="evenodd" d="M5.93685 9C4.40656 9 3.16602 10.1753 3.16602 11.625C3.16602 13.0747 4.40656 14.25 5.93685 14.25C7.46714 14.25 8.70768 13.0747 8.70768 11.625C8.70768 10.1753 7.46714 9 5.93685 9Z" fill="var(--fill-0, #0065FB)"/>
</g>
</svg>
