<svg preserveAspectRatio="none" width="100%" height="100%" overflow="visible" style="display: block;" viewBox="0 0 22 22" fill="none" xmlns="http://www.w3.org/2000/svg">
<g id="user">
<path id="Ellipse 328 (Stroke)" fill-rule="evenodd" clip-rule="evenodd" d="M10.5576 1.5C7.93421 1.5 5.80756 3.62665 5.80756 6.25C5.80756 8.87335 7.93421 11 10.5576 11C13.1809 11 15.3076 8.87335 15.3076 6.25C15.3076 3.62665 13.1809 1.5 10.5576 1.5ZM4.30756 6.25C4.30756 2.79822 7.10578 0 10.5576 0C14.0093 0 16.8076 2.79822 16.8076 6.25C16.8076 9.70178 14.0093 12.5 10.5576 12.5C7.10578 12.5 4.30756 9.70178 4.30756 6.25Z" fill="var(--fill-0, #3A3A3A)"/>
<path id="Ellipse 328 (Stroke)_2" fill-rule="evenodd" clip-rule="evenodd" d="M10.5576 12.5C6.09214 12.5 2.43743 15.3072 1.52819 18.9509C1.41081 19.4213 1.79986 20 2.55756 20H10.5576C10.9718 20 11.3076 20.3358 11.3076 20.75C11.3076 21.1642 10.9718 21.5 10.5576 21.5H2.55756C1.10612 21.5 -0.344659 20.2608 0.0728177 18.5878C1.16869 14.1961 5.48951 11 10.5576 11C15.6256 11 19.9464 14.1961 21.0423 18.5878C21.4598 20.2608 20.009 21.5 18.5576 21.5H15.5576C15.1433 21.5 14.8076 21.1642 14.8076 20.75C14.8076 20.3358 15.1433 20 15.5576 20H18.5576C19.3153 20 19.7043 19.4213 19.5869 18.9509C18.6777 15.3072 15.023 12.5 10.5576 12.5Z" fill="var(--fill-0, #3A3A3A)"/>
</g>
</svg>
