<svg preserveAspectRatio="none" width="100%" height="100%" overflow="visible" style="display: block;" viewBox="0 0 22 21" fill="none" xmlns="http://www.w3.org/2000/svg">
<g id="Group">
<path id="Vector" d="M16.5775 6.61242C16.4157 6.65823 16.2705 6.76862 16.1805 6.93265C16.0003 7.26056 16.1089 7.67926 16.4228 7.86727L18.8995 9.35217C18.9194 9.36749 18.9401 9.382 18.962 9.39513C19.1199 9.48988 19.2998 9.50812 19.4625 9.46114C19.6106 9.42004 19.7448 9.32494 19.836 9.18427C19.863 9.14397 19.886 9.10065 19.9042 9.05493L21.3168 6.48196C21.4069 6.31801 21.4248 6.1313 21.3809 5.96217C21.3371 5.79307 21.2315 5.64133 21.0745 5.54731C20.7607 5.35899 20.3601 5.4724 20.1801 5.80048L19.5212 7.00076C18.1418 2.93428 14.429 0.0115078 10.0734 3.37457e-05C4.5449 -0.0145436 0.0140211 4.69554 3.27043e-05 10.473C-0.0140143 16.275 4.49881 21 10.0477 21C15.2458 21 19.5344 16.8533 20.0442 11.5592C20.083 11.1564 19.7791 10.8069 19.3917 10.8069C19.0578 10.8069 18.7738 11.069 18.7405 11.4162C18.2994 16.022 14.5694 19.6304 10.0477 19.6304C5.14488 19.6304 1.17234 15.3884 1.31426 10.2322C1.44758 5.38903 5.22716 1.4723 9.86266 1.37159C13.7157 1.28788 17.0233 3.82562 18.2626 7.39151L17.075 6.67946C16.918 6.58532 16.7394 6.5666 16.5775 6.61242Z" fill="var(--fill-0, #0065FB)"/>
<g id="Group_2">
<path id="Vector_2" d="M6.92401 7.02494C6.79067 6.99672 6.6384 6.98182 6.48366 6.98182C5.5374 6.98182 4.90163 7.62675 4.90163 8.58667C4.90163 9.02695 5.03514 9.40208 5.28774 9.67152C5.55596 9.95761 5.94873 10.1089 6.42355 10.1089C6.6375 10.1089 6.80524 10.0822 6.90828 10.0599C7.0719 10.0245 7.17943 9.85523 7.14804 9.68263C7.11668 9.51025 6.95761 9.394 6.79356 9.42348C6.70123 9.44006 6.60511 9.44882 6.51559 9.44882C5.98811 9.44882 5.67318 9.11215 5.67318 8.54821C5.67318 7.98449 5.99458 7.63433 6.51195 7.63433C6.60991 7.63433 6.70586 7.64458 6.79719 7.66481C6.96029 7.70099 7.12096 7.59625 7.16289 7.42643C7.18428 7.33976 7.17047 7.24654 7.12504 7.17067C7.07938 7.09446 7.008 7.0427 6.92401 7.02494Z" fill="var(--fill-0, #0065FB)"/>
<path id="Vector_3" d="M7.74401 10.0634C7.90657 10.0634 8.05019 9.94906 8.09327 9.78523L8.21771 9.31204H8.94408L9.07894 9.78266C9.12704 9.95061 9.27208 10.0634 9.43985 10.0634C9.56092 10.0634 9.6715 10.005 9.74326 9.9031C9.81501 9.8012 9.83553 9.67349 9.79954 9.55271L9.18155 7.47822C9.10125 7.20866 8.86582 7.02757 8.59566 7.02757C8.32394 7.02757 8.08807 7.21005 8.00875 7.48165L7.39758 9.57441C7.36372 9.69034 7.38388 9.81271 7.4529 9.91014C7.52191 10.0076 7.62802 10.0634 7.74401 10.0634ZM8.79677 8.69202C8.78872 8.70323 8.77641 8.70968 8.76301 8.70968H8.39445C8.38112 8.70968 8.36887 8.70331 8.36084 8.69222C8.3528 8.68114 8.35025 8.66707 8.35387 8.65367L8.48756 8.1578C8.51012 8.07242 8.54441 7.93122 8.57487 7.80372C8.60425 7.9254 8.6345 8.0497 8.66456 8.1579L8.80349 8.65325C8.80724 8.66666 8.8048 8.68081 8.79677 8.69202Z" fill="var(--fill-0, #0065FB)"/>
<path id="Vector_4" d="M10.9732 8.83306L10.9733 8.8331C11.3361 8.96672 11.4071 9.06536 11.4071 9.19057C11.4071 9.35837 11.264 9.45462 11.0145 9.45462C10.878 9.45462 10.7302 9.43032 10.5871 9.38434C10.5036 9.35752 10.4157 9.36752 10.3398 9.41258C10.2638 9.45762 10.2105 9.5313 10.1898 9.61995L10.1876 9.62928C10.1476 9.79975 10.2417 9.97205 10.4016 10.0215C10.5837 10.0778 10.7875 10.1088 10.9755 10.1088C11.3482 10.1088 11.6551 10.0107 11.8631 9.82501C12.0525 9.65594 12.1568 9.41489 12.1568 9.14623C12.1568 8.71581 11.9155 8.42107 11.3976 8.21875C11.034 8.07526 10.9131 8.00309 10.9131 7.8585C10.9131 7.71981 11.0524 7.63021 11.268 7.63021C11.3796 7.63021 11.4902 7.64501 11.5968 7.6742C11.7618 7.71942 11.9329 7.61595 11.9783 7.44368C12.0011 7.35734 11.9898 7.26724 11.9466 7.18995C11.9038 7.11342 11.835 7.05955 11.753 7.03825C11.6089 7.00081 11.4489 6.98182 11.2774 6.98182C10.9486 6.98182 10.6685 7.07331 10.4676 7.24638C10.273 7.41402 10.1658 7.65142 10.1658 7.91487C10.1658 8.33135 10.4299 8.63169 10.9732 8.83306Z" fill="var(--fill-0, #0065FB)"/>
<path id="Vector_5" d="M13.2534 9.67788V8.92043C13.2534 8.87541 13.2884 8.83879 13.3315 8.83879H14.1146C14.1577 8.83879 14.1928 8.87541 14.1928 8.92043V9.67788C14.1928 9.89046 14.3583 10.0634 14.5617 10.0634C14.7651 10.0634 14.9306 9.89046 14.9306 9.67788V7.41309C14.9306 7.20052 14.7651 7.02757 14.5617 7.02757C14.3583 7.02757 14.1928 7.20052 14.1928 7.41309V8.07152C14.1928 8.11654 14.1577 8.15315 14.1146 8.15315H13.3315C13.2885 8.15315 13.2534 8.11654 13.2534 8.07152V7.41309C13.2534 7.20052 13.0879 7.02757 12.8845 7.02757C12.681 7.02757 12.5155 7.20052 12.5155 7.41309V9.67788C12.5155 9.89046 12.681 10.0634 12.8845 10.0634C13.0879 10.0634 13.2534 9.89046 13.2534 9.67788Z" fill="var(--fill-0, #0065FB)"/>
<path id="Vector_6" d="M6.60441 12.3303C6.84815 12.1975 6.98539 11.9764 6.98539 11.7089C6.98539 11.4396 6.85393 11.2119 6.6247 11.0841C6.42154 10.961 6.18207 10.913 5.77112 10.913C5.55236 10.913 5.30579 10.9272 5.11153 10.951C4.99187 10.9656 4.90163 11.0716 4.90163 11.1975V13.7323C4.90163 13.8612 4.994 13.9674 5.11647 13.9792C5.27345 13.9944 5.44903 14.0021 5.63833 14.0021C6.18552 14.0021 6.54579 13.9137 6.77197 13.7238C6.97545 13.5543 7.083 13.3246 7.083 13.0596C7.083 12.7272 6.90264 12.4572 6.60441 12.3303ZM5.63373 12.746C5.63373 12.7085 5.6629 12.6781 5.69875 12.6781H5.79769C5.98985 12.6782 6.31223 12.7246 6.31223 13.0336C6.31223 13.3552 6.00646 13.4032 5.8242 13.4032C5.77364 13.4032 5.73257 13.4029 5.69645 13.4017C5.66126 13.4004 5.63371 13.3706 5.63371 13.3337L5.63373 12.746ZM5.78667 12.0965H5.69877C5.66292 12.0965 5.63375 12.066 5.63375 12.0285V11.5765C5.63375 11.5412 5.66015 11.5114 5.69383 11.5087C5.73775 11.5052 5.79023 11.5034 5.84981 11.5034C6.03002 11.5034 6.24483 11.5528 6.24483 11.7882C6.24481 11.9841 6.07783 12.0965 5.78667 12.0965Z" fill="var(--fill-0, #0065FB)"/>
<path id="Vector_7" d="M9.19101 11.3857C9.11072 11.1162 8.87526 10.9351 8.6051 10.9351C8.3334 10.9351 8.09753 11.1176 8.01821 11.3892L7.40704 13.4819C7.37318 13.5979 7.39335 13.7202 7.46237 13.8177C7.53137 13.9151 7.63748 13.971 7.75347 13.971C7.91603 13.971 8.05965 13.8565 8.10273 13.6927L8.22718 13.2195H8.95352L9.09151 13.701C9.13777 13.8625 9.27721 13.9709 9.43849 13.9709H9.46902C9.58542 13.9709 9.69174 13.9147 9.76072 13.8168C9.82973 13.7188 9.84944 13.596 9.81484 13.4799L9.19101 11.3857ZM8.36782 12.5446L8.49704 12.0653C8.52392 11.9635 8.54979 11.8436 8.5748 11.7277C8.57611 11.7215 8.57743 11.7154 8.57876 11.7092C8.61121 11.8327 8.64937 11.9766 8.67403 12.0654L8.80824 12.544C8.81313 12.5614 8.80996 12.5798 8.79955 12.5943C8.78912 12.6089 8.77317 12.6172 8.75579 12.6172H8.42042C8.40315 12.6172 8.38726 12.609 8.37683 12.5946C8.36642 12.5801 8.36314 12.5619 8.36782 12.5446Z" fill="var(--fill-0, #0065FB)"/>
<path id="Vector_8" d="M12.1201 10.9331C11.9861 10.9045 11.8328 10.8893 11.6769 10.8893C10.7306 10.8893 10.0948 11.5343 10.0948 12.4942C10.0948 12.9345 10.2284 13.3096 10.481 13.579C10.7492 13.8651 11.1419 14.0164 11.6168 14.0164C11.8306 14.0164 11.9984 13.9898 12.1015 13.9674C12.2651 13.932 12.3726 13.7627 12.3412 13.5901C12.3099 13.4177 12.1508 13.3015 11.9867 13.331C11.8945 13.3476 11.7983 13.3563 11.7088 13.3563C11.1813 13.3563 10.8664 13.0197 10.8664 12.4557C10.8664 11.892 11.1878 11.5418 11.7052 11.5418C11.804 11.5418 11.9008 11.5523 11.9928 11.5729C12.1544 11.6091 12.3138 11.5052 12.3555 11.3365L12.3568 11.3311C12.378 11.2453 12.3643 11.1531 12.3194 11.078C12.2742 11.0023 12.2034 10.9509 12.1201 10.9331Z" fill="var(--fill-0, #0065FB)"/>
<path id="Vector_9" d="M14.8786 13.408L14.2003 12.2391L14.7253 11.5333C14.8091 11.4207 14.8239 11.2711 14.7639 11.1429C14.7039 11.0147 14.5818 10.9351 14.4452 10.9351C14.3276 10.9351 14.218 10.9958 14.1519 11.0974L13.6073 11.9345L13.5913 11.9601C13.5614 12.008 13.531 12.0566 13.5009 12.1062V11.3058C13.5009 11.1014 13.3417 10.9351 13.1461 10.9351H13.1235C12.9279 10.9351 12.7687 11.1014 12.7687 11.3058V13.6002C12.7687 13.8046 12.9279 13.9709 13.1235 13.9709H13.1461C13.3417 13.9709 13.5009 13.8046 13.5009 13.6002V12.98L13.6787 12.7511L14.2428 13.784C14.3058 13.8993 14.4238 13.971 14.5509 13.971H14.5753C14.7051 13.971 14.8207 13.9004 14.8844 13.7821C14.9481 13.6639 14.9459 13.524 14.8786 13.408Z" fill="var(--fill-0, #0065FB)"/>
</g>
</g>
</svg>
