<svg preserveAspectRatio="none" width="100%" height="100%" overflow="visible" style="display: block;" viewBox="0 0 10 9" fill="none" xmlns="http://www.w3.org/2000/svg">
<path id="Icon" d="M4.17488 0.41459C4.36764 -0.138197 5.2069 -0.138196 5.39966 0.41459L6.08835 2.38967C6.17455 2.63688 6.42178 2.80426 6.70074 2.80426H8.9294C9.55317 2.80426 9.81251 3.54803 9.30788 3.88967L7.50485 5.11033C7.27917 5.26312 7.18474 5.53394 7.27094 5.78115L7.95964 7.75623C8.15239 8.30902 7.47341 8.76869 6.96877 8.42705L5.16574 7.20639C4.94007 7.0536 4.63447 7.0536 4.40879 7.20639L2.60576 8.42705C2.10113 8.76869 1.42215 8.30902 1.6149 7.75623L2.3036 5.78115C2.3898 5.53394 2.29537 5.26312 2.06969 5.11033L0.266659 3.88967C-0.237974 3.54803 0.0213734 2.80426 0.645135 2.80426H2.8738C3.15276 2.80426 3.39999 2.63688 3.48619 2.38967L4.17488 0.41459Z" fill="var(--fill-0, #F59E0B)"/>
</svg>
