<svg preserveAspectRatio="none" width="100%" height="100%" overflow="visible" style="display: block;" viewBox="0 0 12 12" fill="none" xmlns="http://www.w3.org/2000/svg">
<g id="phone">
<path id="Vector 1306" d="M2.57675 1.21256L1.70728 2.08203C0.995578 2.79373 0.800003 3.87226 1.2165 4.78855C2.42438 7.44589 4.55411 9.57562 7.21145 10.7835C8.12774 11.2 9.20627 11.0044 9.91797 10.2927L10.7874 9.42325C11.0709 9.13983 11.0709 8.68033 10.7874 8.39691L9.61781 7.22728C9.39692 7.0064 9.05948 6.95164 8.78008 7.09134L8.13097 7.41589C7.57217 7.69529 6.89729 7.58577 6.45552 7.144L4.856 5.54448C4.41423 5.10271 4.30471 4.42782 4.58411 3.86903L4.90866 3.21992C5.04836 2.94052 4.9936 2.60308 4.77272 2.38219L3.60309 1.21256C3.31967 0.929146 2.86017 0.929146 2.57675 1.21256Z" stroke="var(--stroke-5, #002965)" stroke-linejoin="round"/>
</g>
</svg>
